<svg xmlns="http://www.w3.org/2000/svg" viewBox="0 0 64 64"><rect width="2" height="2" x="14" y="21"/><rect width="2" height="2" x="22" y="21"/><rect width="2" height="2" x="18" y="21"/><path d="M14 30.061V55a5 5 0 0 0 10 0V30.061a13.782 13.782 0 0 1-10 0zM22 55a3 3 0 1 1-3-3A3 3 0 0 1 22 55zM55.416 28.31a1 1 0 0 1-.857-.8 22.776 22.776 0 0 0-3.434-8.289 1 1 0 0 1 .042-1.17L54 14.405 49.6 10l-3.647 2.837a1 1 0 0 1-1.171.041 22.779 22.779 0 0 0-8.289-3.434 1 1 0 0 1-.8-.857L35.117 4H28.868l-.382 2.707a13.94 13.94 0 0 1 4.195 7.327A17.989 17.989 0 0 1 32 50a17.774 17.774 0 0 1-6-1.045v6.272c.529.134 1.052.256 1.555.35a1 1 0 0 1 .8.842L28.868 60h6.249l.573-4.584a1 1 0 0 1 .8-.857 22.779 22.779 0 0 0 8.289-3.434 1 1 0 0 1 1.171.041L49.6 54 54 49.6l-2.837-3.648a1 1 0 0 1-.042-1.17 22.776 22.776 0 0 0 3.434-8.289 1 1 0 0 1 .857-.8L60 35.117V28.883z"/><circle cx="19" cy="55" r="1"/><polygon points="12 51.596 12 46.891 9.989 49.585 12 51.596"/><path d="M26 29.106v17.7A15.772 15.772 0 0 0 32 48a15.99 15.99 0 0 0 .965-31.951c.021.315.035.632.035.951A14 14 0 0 1 26 29.106zM23 9.761a23.707 23.707 0 0 0-4.525 2.415 1.007 1.007 0 0 1-.565.174.992.992 0 0 1-.6-.2L15 10.426V15h8z"/><path d="M19 29A12 12 0 0 0 25 6.607V16a1 1 0 0 1-1 1H14a1 1 0 0 1-1-1V6.607A12 12 0 0 0 19 29zm-7-9a1 1 0 0 1 1-1H25a1 1 0 0 1 1 1v4a1 1 0 0 1-1 1H13a1 1 0 0 1-1-1zM8.674 26.42c-.089.375-.178.749-.251 1.135a1 1 0 0 1-.842.8L4 28.868v6.264l3.581.508a1 1 0 0 1 .843.808A23.552 23.552 0 0 0 12 45.255V29.106A14.062 14.062 0 0 1 8.674 26.42z"/></svg>